<svg xmlns="http://www.w3.org/2000/svg" viewBox="0 0 1817.4 224.76" data-inject-url="https://cdn.shopify.com/s/files/1/0014/1962/t/53/assets/logo-dark-souls.svg?v=9155296457614639436" class="injectable"><g id="Layer_2" data-name="Layer 2"><g id="Layer_1-2" data-name="Layer 1"><path d="M569,218.75c-26.29-8.81-42.42-37.29-55.92-59.55-3.94-6.5-8-13-11.63-19.65-5.65-10.26-6.6-11.6,2.62-18.65,8-6.14,14.09-11,18.95-20.58C538.64,69.63,515.71,32.07,484,27c-19.2-3.06-39.19-2.44-58.57-2.11-6.26.1-51.27-2.64-53.27,2,4.1.41,11.93,9.85,15.1,11.94,8.42,5.56,10.21,4.45,12.35,15,3.11,15.43,1.77,33,.77,48.51-.66,10.2-.34,20.18-.25,30.4.06,6.94-3.42,31.53.76,34.95-1.25,14.49,2.57,44-20.79,40.94-26-3.35-31.59-49.62-38.23-69.22-8.54-25.21-17.33-50.29-25.56-75.63-4.12-12.69-9-25-13.42-37.6-.91-2.58-4.48-17.33-8.16-9.49-3.9,11.75-14.59,17.7-23.88,22.06,1.06-.12,1.39.7,1,2.46-7.52.77-9.41,31-12.36,42.13a341,341,0,0,1-21.93,59.29c-7.45,15.64-11.72,32.13-20.23,47.49-1.05,1.88-1.61,4.66-3.36,7-5.34,7.06-7.5,7-14.6,11.39a67.24,67.24,0,0,0-7.38.26,70.6,70.6,0,0,1-8.55,11.5c13.28.89,27.65-.22,41-.76,9.53-.38,20,2.25,28.87.35-4.64-13.1-16.06-7.43-17.09-21.08-.63-8.38,7.66-23.17,10.51-31.11,8.7-24.21,16.13-20.16,39.59-19.37,19.35.65,20,6.41,27.21,25.16,2.71,7,8.57,18.92,7.63,27s-13.4,10.75-12.62,18.17c9.05,3.24,23.34.38,32.74.25,14-.19,28-.71,42-.73,25.35,0,51,3.47,76.35,2.18,0-2.32-4.13-6.78-5.76-8.58l3.24-.6c-26.66-2.14-19.25-42.48-19.42-60-.1-11.3-3.56-27.16,13.92-18.69,9.49,4.6,18.14,20.32,23.07,28.81,8.64,14.86,18.93,35.18,34.82,46.86,5.27,3.88,65.1,19.72,65.52,12.73ZM291.5,132.32c-5.69.75-25.79,1.69-29.26-1.29-5.26-4.53,15-55.81,17.25-55.4,0,7.6,6.38,18.55,9.1,26.17,1.69,4.7,2.32,10.94,3.43,14.42C293.78,121.73,302.15,130.91,291.5,132.32ZM488.9,85.55c0,5.77-3.82,10.69-3.61,15.81-7.53,4.06-13.4,12.37-26.51,13.8-6.61.73-18.62,2-21.72-3.07-4.18-6.81,0-30.42,0-38.63,0-6.87-3-22.69,1.28-28.37s15.1-4.2,21.89-2.89C483.29,46.64,488.81,64.5,488.9,85.55Z"></path><path d="M190.59,180.68c6.38,1.51,19.3-30.54,20.76-36,2.13-8,2.85-18.36,2.62-26.11-.1-3.26-1.72-6.65-2-10.27,9.28-7-15-33.62-8.78-43.59-5.83,1.83-27-20.94-32.63-24.37-14.27-8.7-32-12.49-48.44-14.67-19-2.51-38.58-1.32-57.72-2-10.41-.35-21.21-2.52-33.14-.82,1.05,2.72,7,0,9,1.37-4.1.22-9.84,1.89-12.22-1a3,3,0,0,1-2.81,1.42c-3-4.81-3.92-3.23-9.33-2.64.62-1.8-8.07-4-9.37-5.91C9.18,25.42.85,27.73,15.43,36c11.28,6.39,14.19,6,15.07,21.22.73,12.56.68,25.33.72,37.92.07,23.27.38,46.39.76,69.77.14,8.86,3.47,25.25-.72,33.46-3.51,6.86-18.86,10.48-23.15,6.14C11.31,211,1.39,214.87,0,220.18c6.62.1,17.87-2.37,22.36-1.79a5.52,5.52,0,0,1-.71,2.21c5.8,1.89,14.1-1.15,19.12-1.07,2.93,0,11.2,1.23,16.19,1.25,15.16.07,30,.32,44.91-.42C135.55,218.7,170.09,209.2,190.59,180.68Zm-19.34-50.34c3.11,2.93-1.63,29.59-5.42,31.62,3.65,4.29-7.71,16-10.21,20.53-6.69,4-12.73,10.62-19.76,13.42-10.67,4.7-28.05,9.61-41.6,9.36-5.45-.09-10.44.56-15.63-1.91-4.95-2.36-13.15-12.67-13-13.76-5.25-10.21-.93-40.62-1-55.23,0-16-1.64-32-1.37-47.92.16-9.18-1.25-26.81,2.85-35.18,8-16.35,38.76-13.5,53.79-9.11,13.95,4.08,24.95,13.14,32.91,25,2.13,3.19,14.17,21.14,12,23.3-2.53,3,3.89,15.1,4.64,18.8C170.82,115.65,171.87,124.48,171.25,130.34Z"></path><path d="M1207.92,118.25c.88.09-3.45-20.22-4.15-22.82-3.87-14.33-9.22-25.29-19.23-36.12-19-20.56-39.6-31.38-67.22-35.78-38.11-6.09-83.25,11-102,44.86C996.92,101.45,1001.67,143,1017.4,175c14.46,29.43,40.42,39.48,68.11,45.59C1151.76,235.24,1207.92,183.19,1207.92,118.25ZM1169,126c-2.35,27.91-9.73,68.59-40.29,79-14.55,5-36.93,5.1-50.37-2.85-5.49-3.24-16.61-14.81-17.17-20.21a22.7,22.7,0,0,0-4.47-4.27c2.41-4.09.72-3.3-1.46-5.56-2.08-4.86-3.08-8-6.44-12.29,1.68-2.12-3-9-3.63-11.79-1.9-8.74-2.68-19.07-2.84-29.52-.37-24.66,5.08-56.41,26.49-72.83C1121.55,5.26,1173.15,76.26,1169,126Z"></path><path d="M1033.22,49.08C1031,47.14,1035.68,45.78,1033.22,49.08Z"></path><path d="M1033.2,47h1.92C1034.34,48,1033.78,47.16,1033.2,47Z"></path><path d="M1413.27,24.3c-24,2.21-48.14,3.24-72.11.78,7.46,8.11,11,8.21,19.2,13.57,10,6.56,10.49,16.54,10.86,28.16.49,15.63.43,32.24.27,47.76a285.42,285.42,0,0,1-2.07,31.6c-1.81,14.38-5.75,28.24-11.39,38.31a4.69,4.69,0,0,1,1.16,1.06,6.71,6.71,0,0,0-2.43.77,1.4,1.4,0,0,1,1.19,1.44c-3.16-1.85-15.52,11.17-18.73,12.9a48.26,48.26,0,0,1-28.21,5.68c-15-1.63-31.1-10.57-39.1-24-9.61-16.06-9-34.54-9.06-52.4,0-10.45,4-28.75-.18-38-2.21-.84-.34-45,2.07-49.59,2.91-5.53,27.4-8.59,25.33-16-15.14-2.25-32.78,0-48,.2-5.52.07-11,.3-15.73,0-6.13-.37-19-4.21-25.08-1.81q5.34,5.5,11,10.71l7.27,1.21c4.86,3.49,6.69,3.77,8.84,10.39,4.25,13.13,1.94,32.81,2.14,46.51.31,20.23-.91,40.19.3,60.53S1239,193,1254.82,206.4a65.85,65.85,0,0,0,35,15.85,125,125,0,0,0,24.89,1.21c2-.13,8.52,2.11,3.82-.63a87.1,87.1,0,0,0,30.75-9c8.11-4.33,17.36-16.46,23.48-17.9-.23-6.71,5.46-15,7.51-22.41a129.9,129.9,0,0,0,4.14-28c.79-15.06.2-28.8.17-43.54,0-15.74-4.55-45.59,4.66-59.25C1395.58,33.42,1407.09,34.79,1413.27,24.3Zm-66.54,174.52c-.36-.44,0-.54.07-.92C1347.27,198.52,1347,198.66,1346.73,198.82Z"></path><path d="M792.69,219.7c-3.65-.06-11.34-2.69-14.38-4.8,5.64,1.35-16.33-9.55-19.66-12.05a222.37,222.37,0,0,1-31.56-29.7c-7.5-8.72-15.36-20.38-23.67-29.71-6.35-7.14-22.57-19.14-24.21-28.21-1.84-10.16,15.22-23,22.14-30.92C712,72,721.8,58.06,735.48,48.88c12.65-8.5,25.31-10.77,36.34-22.61-7.65-4.16-25.94.19-34.58.15-10.89-.05-23.3-2.35-34-.56,9.6,15.59-4,26.36-13,37.36-8.5,10.33-24.85,42.18-39.84,42.9-16.31.78-10.31-36.88-9.26-48,1.23-13,1.35-12.43,10.58-20.21,5.58-4.7,4.63-6.5,10.43-13.92-13.58,1.36-25.8,1.12-39.52,1-12.52-.15-29.84-2.9-41.7-.58,5,8.31,13.12,9,18.51,14.81,7.39,7.94,5.68,19.28,5.68,29.41,0,18.78.17,37.58.07,56.22-.1,19.25-.26,37.86-.06,56.73.13,11.65,0,18.75-8.33,26-4.39,3.8-11.74,4.19-14,11.75,25.26-.4,50.55-1,75.8.13-6.67-11.23-13.6-10.3-15.91-21.69-1-5.07-4.37-22.93-2.15-27.69,1.46.2,1.59-22.6,1.58-26.71,0-1.42-.82-16.61.25-17.4,5.89-4.33,11.5,6.45,12.82,9.37C665.67,147.73,677.79,160.62,688,174c8.91,11.71,32.14,33.21,12.35,45,3.73,3.16,20.75-.1,25.74-.18,9.78-.15,19.57-.22,29.34,0,10.86.23,24,1.84,32.52.21C788.38,219.25,794,223.22,792.69,219.7Z"></path><path d="M987.3,152.4c-1-44-65.17-42.09-77.42-78.7-7-21,8.47-39.36,30.55-36.6,17.11,2.14,35.66,22.3,34.81,40,5.44-.08,11-28.73,10.64-31.72s-4.44-14.21-6.7-16.32c-13.37-12.52-55.44-10.82-71.4-4.84-45.43,17-42.35,78.52-7.55,100.45,23,14.47,68,31.69,54.68,68.79-6.71,18.69-30.81,18.52-44.84,9.43-15.32-9.93-34.71-32.62-37.2-51.74-4.92,6.72-5.39,21.94-9.18,31.07-5.13,12.41-4,5.82.44,14.11,3.71,7,10.52,13.84,14.65,20,8.77,12.94,56.37,8.16,67.77,3.91a72,72,0,0,0,30.69-21.35C990.05,183.6,987.73,171,987.3,152.4Z"></path><path d="M957,188.11c-.36-.33-.27-.63,0-1A1,1,0,0,1,957,188.11Z"></path><path d="M1714.93,152.35c-5.87-11.6-6.06-20.33-16.42-29.67-9.16-8.25-18.1-13.86-29.45-19.27-19.76-9.42-46.82-31.65-30.45-57,3.14,1.63,9.65-7.41,14.88-9.79a29,29,0,0,1,14-2.23,37.67,37.67,0,0,1,17.79,7.43c7.44,5.76,23,26.24,18.37,36.16,2.57.85,15.2-29.32,15-30.59,0-.23-8.37-15.13-10-16.47-8.51-7-30.87-9-40.9-9.21-12.33-.25-21.73,1.35-32.39,6.83-50.84,26.13-31.24,82.41,10.84,105.65,15.74,8.69,27.84,11.77,37.12,27.64,4.34,7.41,6.64,20.13,2.44,29.75-11.32,25.91-38.85,21.46-57,6.93-13.87-11.08-14.08-27.41-24.33-41.15-7.11,3.75-4.85,21.88-10.91,27.4-.06-.89-6.35.74-6.58.91,4.46,7.77,16.35,25.41,24.39,30.88s31.77,6.67,44.44,6.82C1689.62,223.79,1735.37,192.7,1714.93,152.35Z"></path><path d="M1637,47.62C1638.54,47.83,1634.86,51,1637,47.62Z"></path><path d="M1578.28,184.33c-3.65-4.66-5.58-13.24-10.07-16.82-.49,9.84-8.28,26.67-15.68,33.18-8,7.06-20.19,6-30.37,6.23-22.54.6-39.29,3-41.65-21.33-2.28-23.46-2.29-50.39-2-74.51.15-10.07,2.45-22.44,1.83-29-.22-2.34,3-5.79-1.73-5-1.26-12.74-4.36-35.88,10.63-40.2,6.7-1.93,18,2.19,18-11.24-5.06-1.37-89.27-.28-89.45.32,4.25,9.4,12.82,6.55,19.57,11.26,9.21,6.43,7.72,20.14,8.39,30.75a507,507,0,0,1,.83,53.74c-1,21.92-1.07,43.86-1.35,65.9-.13,10.68-.52,13.81-10.41,18.78-3.35,1.69-9.08,1.91-11.84,3.95-4,3-2.16,6.1-6.16,8.79,4.89,5.64,47.28-.27,54.95-.26,19,0,38.35-.94,57.24-.62,11.39.19,37.74,6.88,46-1.71C1579.38,212,1581.91,189,1578.28,184.33Zm-98.94-106c1.19,0,1.17.86,1.22,1.63C1479.93,79.7,1479.08,79.59,1479.34,78.36Z"></path><path class="cls-1" d="M1774.81.76c2,10.53-9.28.63-13.22,4.67-2.16,2.21,0,16.48,0,19.27,0,3.07,1.83,13.07,0,15.29-6.18,7.5-5.37-11-5.37-11.4,0-4.19,2.41-19.1,0-21.77-2.6-2.89-10.3,1.18-13.21-1.39C1736.89,0,1771.22.76,1774.81.76Z"></path><path class="cls-1" d="M1779.57.76c12.67-4.07,15.91,24.38,18.89,33.17,2.56-7.59,4.85-25.81,10.49-31.06,9.38-8.74,8.28,4.61,8.28,11.7,0,2,1.61,32.4-5.07,25.42-3.28-3.42.1-27.69.1-33.09C1810.05,13.43,1805,40,1798.42,40s-11.82-26.9-13.94-33.09c.07,4.85,2.33,38.82-4.91,32.84C1776,36.79,1779.57,6.17,1779.57.76Z"></path></g></g></svg>
