<?xml version="1.0" encoding="utf-8"?>
<!-- Generator: Adobe Illustrator 19.0.0, SVG Export Plug-In . SVG Version: 6.00 Build 0)  -->
<svg version="1.1" id="レイヤー_1" xmlns="http://www.w3.org/2000/svg" xmlns:xlink="http://www.w3.org/1999/xlink" x="0px"
	 y="0px" viewBox="0 0 425.2 37.2" style="enable-background:new 0 0 425.2 37.2;" xml:space="preserve">
<g>
	<path d="M166.6,11.5c0-1.5,2.5-1.7,3.5-1.7c2.4,0,5,0.7,7.3,1.8l-1.2-10.3c-3.2-0.7-6.4-1.1-10.5-1.1c-7.7,0-11.6,4.5-11.6,10
		c0,8.1,11.4,12.8,11.4,15.8c0,1.4-2.5,1.4-3.6,1.4c-2.8,0-5.8-0.9-8.5-2.1l1.5,10.7c3.4,0.4,7.5,1.1,10.1,1.1
		c10.1,0,13.1-5.6,13.1-10.7C177.9,18.6,166.6,14.7,166.6,11.5z"/>
	<path d="M198.4,0.2c-10.2,0-20,5.3-20,18.5c0,13.1,9.8,18.5,20,18.5c10.2,0,20-5.3,20-18.5C218.4,5.6,208.6,0.2,198.4,0.2z
		 M198.4,27.5c-3.9,0-7.4-3.6-7.4-8.8c0-5.2,3.6-8.9,7.4-8.9c3.9,0,7.4,3.6,7.4,8.9C205.9,24,202.3,27.5,198.4,27.5z"/>
	<polygon points="220.3,36.5 232.8,36.5 232.8,23.4 244.3,23.4 244.3,14.1 232.7,14.1 232.7,10.3 246.9,10.3 246.9,0.9 220.3,0.9 	
		"/>
	<path d="M322.2,28.4c1.8-9.1,3.7-18.3,5.7-27.4h-10.3l-3.4,22.3h-0.1l-4.4-22.3h-12.5l-3.5,22.3h-0.1l-2.5-14.8
		c0,0-0.8-7.9-10.8-7.5h-31.1v9.3h9.9v26.2h12.6V10.3h9.9c1.9,8.7,3.7,17.5,5.4,26.2h13l3.2-20.1h0.1l3.9,20.1h5
		C320.1,37.3,322.2,28.4,322.2,28.4z"/>
	<polygon points="425.2,10.3 425.2,0.9 396.9,0.9 396.9,36.5 425.2,36.5 425.2,27.2 409.4,27.2 409.4,23.4 422.3,23.4 422.3,14.1 
		409.4,14.1 409.4,10.3 	"/>
	<polygon points="0,36.3 12.6,36.3 12.6,23.1 24,23.1 24,13.8 12.4,13.8 12.4,10 26.6,10 26.6,0.7 0,0.7 	"/>
	<path d="M82,27.3c-3.9,0-7.4-3.6-7.4-8.8c0-5.2,3.6-8.9,7.4-8.9c3.9,0,7.4,3.6,7.4,8.9C89.5,23.7,85.9,27.3,82,27.3z M82,0
		C71.9,0,62,5.3,62,18.5C62,31.6,71.9,37,82,37c10.2,0,20-5.3,20-18.5C102.1,5.3,92.2,0,82,0z"/>
	<path d="M60.8,11.7c0-6.8-4-11-11.8-11H28.9v35.6h12V9.8H45c2.1,0,3.6,0.6,3.8,3.1c0.1,2.7-2.6,3.5-4.9,3.5c-0.7,0-1.4-0.1-2.1-0.2
		l5.6,20.2h13.1c-2.1-5.1-4-10.2-5.6-15.3C58.8,19,60.8,15.6,60.8,11.7z"/>
	<polygon points="124.1,20.3 124,20.3 120.4,0.7 104,0.7 104,36.3 113.8,36.3 113.8,12.8 113.9,12.8 118.5,36.3 128.9,36.3 
		133.7,12.8 133.8,12.8 133.8,36.3 144.1,36.3 144.1,0.7 127.7,0.7 	"/>
	<path d="M394.9,12c0-6.8-4-11-11.8-11H363v32.1c-4.3-10.7-8.4-21.4-12.4-32.1h-14.9c-4.8,11.8-9.9,24-15.2,35.6h13.7l2.9-8.2h11.4
		l2.8,8.2H375V10h4.2c2.1,0,3.7,0.6,3.8,3.1c0.1,2.7-2.6,3.5-4.8,3.5c-0.7,0-1.4-0.1-2.1-0.2l5.6,20.2h13.1
		c-2.1-5.1-4-10.2-5.6-15.3C393,19.2,394.9,15.8,394.9,12z M340,19.2l3-8.8h0.1l2.8,8.8H340z"/>
</g>
</svg>
